<svg width="26" height="26" viewBox="0 0 26 26" fill="none" xmlns="http://www.w3.org/2000/svg">
<g clipPath="url(#clip0_1894_30363)">
<path d="M12.9933 0.5C19.9207 0.5 25.5134 6.07928 25.5 13.0067C25.5 19.9341 19.9074 25.5133 12.98 25.5C6.09266 25.4867 0.513371 19.9207 0.500024 13.0334C0.486676 6.10598 6.06596 0.5 12.9933 0.5ZM10.3372 11.3649C10.5107 11.1781 10.6442 11.0312 10.791 10.8978C10.9512 10.7376 11.1113 10.5908 11.2582 10.4172C11.6986 9.91004 11.7253 9.40283 11.2849 8.92232C10.6842 8.26829 10.0435 7.64095 9.40285 7.04031C8.97573 6.63988 8.40179 6.65323 7.96132 7.04031C7.26724 7.6543 6.84012 8.40176 6.77338 9.34944C6.6933 10.5107 6.85347 11.6452 7.52085 12.6062C8.3217 13.7541 9.1626 14.8753 10.1236 15.8764C11.6052 17.4381 13.3404 18.666 15.516 19.1332C16.8375 19.4135 17.9853 19.1599 18.9063 18.1188C19.3468 17.6249 19.3735 17.051 18.9197 16.5705C18.3324 15.9565 17.7451 15.3558 17.1311 14.7819C16.6105 14.2747 16.0766 14.2747 15.5561 14.7952C15.2624 15.0889 15.0222 15.4359 14.7819 15.7296C12.7131 14.7285 11.2982 13.3137 10.3372 11.3649Z" fill="white"/>
</g>
<defs>
<clipPath id="clip0_1894_30363">
<rect width="25" height="25" fill="white" transform="translate(0.5 0.5)"/>
</clipPath>
</defs>
</svg>
