<svg width="26" height="25" viewBox="0 0 26 25" fill="none" xmlns="http://www.w3.org/2000/svg">
<path d="M13.02 24.9992C6.25389 25.1859 0.486704 19.2361 0.500023 12.4858C0.513342 5.73555 6.30716 -0.0942296 13.0067 -0.00084647C20.0125 0.0925367 25.4068 5.50876 25.5 12.5392C25.5799 19.2761 19.7462 25.1859 13.02 24.9992ZM19.2933 20.0098C19.2933 17.4885 19.2933 15.0338 19.2933 12.4992C20.3189 12.4992 21.2779 12.4992 22.3833 12.4992C19.1868 9.51089 16.11 6.62936 13.2065 3.92125C10.2763 6.8428 7.39933 9.69766 4.5224 12.5525C5.20167 12.5525 5.94755 12.5525 6.77333 12.5525C6.77333 15.0605 6.77333 17.5152 6.77333 19.9965C8.26507 19.9965 9.6769 19.9965 11.1686 19.9965C11.1686 17.9287 11.1686 15.8743 11.1686 13.8065C12.4473 13.8065 13.6194 13.8065 14.898 13.8065C14.898 15.901 14.898 17.9554 14.898 20.0098C16.3764 20.0098 17.7616 20.0098 19.2933 20.0098Z" fill="white"/>
</svg>
