<svg width="228" height="228" viewBox="0 0 228 228" fill="none" xmlns="http://www.w3.org/2000/svg">
<g id="Lift" clip-path="url(#clip0_2708_2465)">
<g id="Group">
<path id="Vector" d="M114 228C176.96 228 228 176.96 228 114C228 51.0395 176.96 0 114 0C51.0395 0 0 51.0395 0 114C0 176.96 51.0395 228 114 228Z" fill="white"/>
<g id="Group_2">
<path id="Vector_2" d="M165.904 50.2969H62.0965C59.2818 50.2969 57 52.5786 57 55.3933V172.612C57 175.427 59.2818 177.709 62.0965 177.709H165.904C168.718 177.709 171 175.427 171 172.612V55.3933C171 52.5786 168.718 50.2969 165.904 50.2969Z" fill="#366935"/>
<path id="Vector_3" fill-rule="evenodd" clip-rule="evenodd" d="M94.6361 60.1274L104.239 69.7872C104.416 69.9657 104.537 70.1928 104.586 70.4398C104.634 70.6868 104.609 70.9426 104.512 71.1751C104.415 71.4075 104.252 71.6061 104.043 71.7458C103.833 71.8855 103.587 71.96 103.335 71.9599H84.1297C83.8778 71.9603 83.6314 71.8861 83.4217 71.7465C83.212 71.6069 83.0484 71.4084 82.9515 71.1759C82.8546 70.9433 82.8289 70.6873 82.8774 70.4402C82.926 70.193 83.0467 69.9658 83.2244 69.7872L92.8305 60.1274C92.9489 60.0085 93.0896 59.9142 93.2445 59.8499C93.3994 59.7855 93.5656 59.7524 93.7333 59.7524C93.9011 59.7524 94.0672 59.7855 94.2221 59.8499C94.377 59.9142 94.5177 60.0085 94.6361 60.1274ZM135.17 71.0513L144.773 61.3915C144.95 61.213 145.071 60.9859 145.119 60.7389C145.168 60.4919 145.142 60.236 145.046 60.0036C144.949 59.7712 144.786 59.5726 144.576 59.4329C144.367 59.2932 144.121 59.2187 143.869 59.2188H124.663C124.411 59.2184 124.165 59.2926 123.955 59.4322C123.746 59.5717 123.582 59.7703 123.485 60.0028C123.388 60.2353 123.363 60.4913 123.411 60.7385C123.46 60.9857 123.58 61.2129 123.758 61.3915L133.363 71.0513C133.481 71.1704 133.622 71.2649 133.777 71.3294C133.932 71.3939 134.098 71.4271 134.266 71.4271C134.434 71.4271 134.6 71.3939 134.756 71.3294C134.911 71.2649 135.051 71.1704 135.17 71.0513Z" fill="white"/>
<path id="Vector_4" d="M93.7338 108.075C95.9602 108.075 97.8361 107.307 99.3617 105.773C100.887 104.239 101.65 102.351 101.65 100.112C101.65 97.8719 100.887 95.9842 99.3617 94.4502C97.8361 92.9163 95.9602 92.1484 93.7338 92.1484C91.5075 92.1484 89.6315 92.9163 88.1059 94.4502C86.5803 95.9842 85.8175 97.8719 85.8175 100.112C85.8175 102.351 86.5803 104.239 88.1059 105.773C89.6315 107.307 91.5075 108.075 93.7338 108.075ZM97.692 155.854C98.5168 155.854 99.2176 155.564 99.7959 154.983C100.373 154.402 100.661 153.698 100.661 152.869V135.945H102.639C103.464 135.945 104.165 135.655 104.743 135.073C105.32 134.493 105.608 133.789 105.608 132.959V116.038C105.608 114.378 105.032 112.97 103.876 111.808C102.723 110.647 101.322 110.065 99.6719 110.065H98.3106C96.8731 110.718 95.3129 111.058 93.7338 111.061C92.1549 111.058 90.5946 110.72 89.1571 110.067H87.7958C86.1478 110.067 84.7446 110.647 83.5912 111.808C82.4361 112.969 81.8594 114.378 81.8594 116.038V132.96C81.8594 133.79 82.1477 134.494 82.7244 135.074C83.3028 135.656 84.0036 135.946 84.8284 135.946H86.8066V152.869C86.8066 153.698 87.095 154.402 87.6734 154.983C88.2501 155.564 88.9508 155.854 89.7757 155.854H97.692ZM135.533 108.075C137.761 108.075 139.637 107.307 141.163 105.773C142.688 104.239 143.451 102.351 143.451 100.112C143.451 97.8719 142.688 95.9842 141.163 94.4502C139.637 92.9163 137.76 92.1484 135.533 92.1484C133.307 92.1484 131.431 92.9163 129.905 94.4502C128.38 95.9842 127.617 97.8719 127.617 100.112C127.617 102.351 128.38 104.239 129.905 105.773C131.431 107.307 133.309 108.075 135.533 108.075ZM139.493 155.854C140.316 155.854 141.019 155.564 141.595 154.983C142.172 154.402 142.46 153.698 142.46 152.869V135.945H144.439C145.265 135.945 145.964 135.655 146.543 135.073C147.121 134.493 147.409 133.789 147.409 132.959V116.038C147.409 114.378 146.831 112.97 145.678 111.808C144.522 110.647 143.121 110.065 141.471 110.065H140.11C138.673 110.718 137.112 111.058 135.533 111.061C133.954 111.058 132.394 110.72 130.956 110.067H129.597C127.947 110.067 126.546 110.647 125.391 111.808C124.236 112.969 123.659 114.378 123.659 116.038V132.96C123.659 133.79 123.947 134.494 124.526 135.074C125.102 135.656 125.803 135.946 126.628 135.946H128.606V152.869C128.606 153.698 128.896 154.402 129.473 154.983C130.05 155.564 130.75 155.854 131.575 155.854H139.493Z" fill="white"/>
<path id="Vector_5" d="M155.769 80.875H72.2293C69.4146 80.875 67.1328 83.1568 67.1328 85.9715V159.87C67.1328 162.685 69.4146 164.967 72.2293 164.967H155.769C158.584 164.967 160.866 162.685 160.866 159.87V85.9715C160.866 83.1568 158.584 80.875 155.769 80.875Z" stroke="white" stroke-width="2.54824" stroke-linejoin="round"/>
</g>
</g>
</g>
<defs>
<clipPath id="clip0_2708_2465">
<rect width="228" height="228" fill="white"/>
</clipPath>
</defs>
</svg>
