<svg width="160" height="111" viewBox="0 0 160 111" fill="none" xmlns="http://www.w3.org/2000/svg">
<path d="M23.8112 25.7812C22.1422 25.7812 20.7949 27.1249 20.7949 28.7895C20.7949 30.454 22.1422 31.7977 23.8112 31.7977C25.4802 31.7977 26.8275 30.454 26.8275 28.7895C26.8275 27.1249 25.4802 25.7812 23.8112 25.7812ZM22.8359 29.341C22.0718 29.341 21.4484 28.7193 21.4484 27.9572C21.4484 27.1951 22.0718 26.5734 22.8359 26.5734C23.6001 26.5734 24.2234 27.1951 24.2234 27.9572C24.2234 28.7193 23.6001 29.341 22.8359 29.341Z" fill="white"/>
<path d="M42.4714 25.7812C40.8024 25.7812 39.4551 27.1249 39.4551 28.7895C39.4551 30.454 40.8024 31.7977 42.4714 31.7977C44.1404 31.7977 45.4876 30.454 45.4876 28.7895C45.4876 27.1249 44.1404 25.7812 42.4714 25.7812ZM41.4961 29.341C40.732 29.341 40.1086 28.7193 40.1086 27.9572C40.1086 27.1951 40.732 26.5734 41.4961 26.5734C42.2602 26.5734 42.8836 27.1951 42.8836 27.9572C42.8836 28.7193 42.2602 29.341 41.4961 29.341Z" fill="white"/>
<path d="M37.3946 45.3843C37.3946 43.0379 35.4943 39.6387 33.1416 39.6387C30.7889 39.6387 28.8887 43.048 28.8887 45.3843C28.8887 47.7307 30.7889 47.821 33.1416 47.821C35.4943 47.821 37.3946 47.7207 37.3946 45.3843Z" fill="white"/>
<path d="M64.9932 27.515C62.9321 21.619 57.5128 18.1395 52.8979 19.7438C52.1036 20.0146 51.3194 20.4959 50.686 21.0173C50.6457 20.9672 50.6156 20.9271 50.5754 20.8769C49.7308 19.794 48.8259 18.7712 47.8708 17.8386C46.5637 16.5451 41.4662 12.5643 40.9132 12.093C39.023 10.4284 33.8953 6.25706 32.6989 0C31.6733 1.2835 31.1404 2.91796 31.1103 4.55242C31.0801 6.29717 31.5125 8.02188 32.3067 9.55606C30.9293 8.74385 28.5062 4.65269 28.0035 1.73473C26.2541 4.27165 26.7869 9.63628 27.531 11.1304C25.5 10.2881 23.8511 6.64813 23.8109 5.14403C22.7853 6.42753 21.5788 10.6791 23.459 13.8678C21.5085 15.0009 19.6886 16.4549 18.0397 18.1395C17.1751 19.0319 16.3506 19.9845 15.5764 20.9872C14.933 20.4558 14.199 20.0346 13.3947 19.7539C8.77974 18.1495 3.37055 21.629 1.29937 27.5251C-0.761761 33.4211 1.29937 39.5077 5.91428 41.1121C6.5678 41.3428 7.23139 41.4631 7.90502 41.4932C7.9754 40.1194 8.14633 38.7356 8.39768 37.3418C8.03573 37.3118 7.67377 37.2416 7.31182 37.1112C4.41619 36.1085 3.12924 32.2981 4.41619 28.608C5.71319 24.918 9.10148 22.742 11.9871 23.7448C12.4496 23.9052 12.8718 24.1358 13.2438 24.4266C13.2137 24.4768 13.1936 24.5169 13.1634 24.567C10.8107 28.5479 9.16181 33.0401 8.38763 37.5123C8.14633 38.9061 7.98546 40.2999 7.92513 41.6636C7.89497 42.2252 7.88491 42.7867 7.88491 43.3482C7.9754 57.8678 18.7837 66.5014 33.3423 66.4111C47.9009 66.3209 58.5886 57.5469 58.4881 43.0273C58.4881 42.526 58.468 42.0146 58.4378 41.5032C59.1014 41.4731 59.7549 41.3428 60.3984 41.1222C64.9932 39.4977 67.0644 33.4111 64.9932 27.515ZM33.3021 63.1923C22.6345 63.2625 13.9376 56.6946 13.8873 48.5223C13.8572 44.2106 16.2501 40.3099 20.0707 37.5825C18.6832 36.309 17.5772 34.5743 16.974 32.5287C15.4558 27.3045 17.8185 22.0301 22.2525 20.7466C26.6864 19.4631 31.5125 21.5187 33.0307 26.7429C33.0407 26.783 33.0508 26.8332 33.0709 26.8833C33.0809 26.8432 33.091 26.7931 33.101 26.7429C34.5589 21.4986 39.3447 19.3829 43.7887 20.6062C48.2428 21.8295 50.6658 27.0738 49.218 32.3181C48.6449 34.3737 47.5691 36.1185 46.1917 37.412C50.0525 40.0893 52.4957 43.9599 52.5259 48.2716C52.5762 56.4439 43.9697 63.1222 33.3021 63.1923ZM58.9807 37.1112C58.6288 37.2315 58.2769 37.3017 57.915 37.3418C57.9049 37.2917 57.8949 37.2416 57.8848 37.1814C57.0604 32.7894 55.3813 28.3674 53.0286 24.4567C53.4006 24.1759 53.8631 23.8952 54.2954 23.7448C57.181 22.742 60.5693 24.918 61.8663 28.608C63.1633 32.2881 61.8663 36.0984 58.9807 37.1112Z" fill="white"/>
<path d="M44.0289 47.8203C44.5618 48.5623 44.8634 49.3645 44.8634 50.2068C44.8634 53.9169 39.1727 56.9151 32.1548 56.9151C27.8415 56.9151 24.0309 55.782 21.7285 54.0373C23.5483 56.5642 28.1834 58.3591 33.6026 58.3591C40.6205 58.3591 46.3112 55.3508 46.3112 51.6508C46.3112 50.2269 45.4667 48.9033 44.0289 47.8203Z" fill="white"/>
<path d="M47.4991 37.332C44.3923 37.332 41.3358 36.8607 39.1339 36.0385C35.8964 34.8352 34.0062 31.5462 34.0867 27.2345C33.6945 27.1442 33.403 27.0941 33.1215 27.0941C32.85 27.0941 32.5484 27.1442 32.2166 27.2144C32.2869 31.5462 30.3967 34.8352 27.1492 36.0385C24.9373 36.8607 21.8908 37.332 18.7841 37.332C16.1599 37.332 13.7167 36.9911 11.917 36.3794C8.24718 35.136 7.27191 29.0394 6.69882 25.3894L6.60833 24.8179C6.56812 24.5472 6.50779 24.497 6.0654 24.2463C5.62301 23.9956 4.95943 23.6146 4.63769 22.7523C4.20536 21.5891 4.00428 18.4906 6.02518 17.7386C6.38714 17.6082 7.08088 17.4277 8.94092 17.4277C11.9069 17.4277 15.999 17.8589 16.1699 17.879C20.443 18.26 25.4199 19.6037 28.3658 21.178L28.5367 21.208C30.0549 21.4988 31.5932 21.6492 33.1114 21.6492C34.6296 21.6492 36.1679 21.4988 37.6861 21.208C37.7665 21.188 37.847 21.178 37.9173 21.1679C40.8733 19.6037 45.8401 18.26 50.0931 17.879C50.264 17.8589 54.3561 17.4277 57.3221 17.4277C59.1821 17.4277 59.8759 17.6082 60.2378 17.7386C62.2587 18.4906 62.0576 21.5891 61.6253 22.7523C61.3136 23.6146 60.64 23.9956 60.1976 24.2463C59.7653 24.497 59.7049 24.5472 59.6547 24.8179L59.5642 25.3894C58.981 29.0294 58.0158 35.126 54.346 36.3794C52.5564 37.0011 50.1232 37.332 47.4991 37.332ZM50.1333 22.662C45.9909 22.662 41.3559 23.5845 39.345 24.8179C38.5608 25.2992 38.0179 26.0212 37.9777 26.6629C37.7364 30.2126 38.5508 32.2582 40.4812 32.92C42.3814 33.5718 45.257 33.9829 47.9917 33.9829C50.0428 33.9829 51.8526 33.7523 53.0792 33.3411C54.3762 32.8999 55.3112 30.2828 55.3112 27.1242C55.3112 24.8781 54.0645 23.3539 53.4311 23.0731C52.5262 22.662 51.3599 22.662 50.1333 22.662ZM16.1498 22.662C14.9232 22.662 13.7569 22.662 12.852 23.0631C12.2186 23.3439 10.9719 24.868 10.9719 27.1142C10.9719 30.2828 11.9069 32.8899 13.2039 33.3311C14.4306 33.7422 16.2303 33.9729 18.2914 33.9729C21.0262 33.9729 23.9017 33.5617 25.8019 32.91C27.7324 32.2482 28.5568 30.1925 28.3055 26.6529C28.2652 26.0212 27.7223 25.2992 26.9381 24.8079C24.9373 23.5845 20.3023 22.662 16.1498 22.662Z" fill="#FAFAFA"/>
<path d="M59.8458 18.8526C58.1366 18.2108 50.2439 19.0631 50.2439 19.0631C45.7095 19.4642 40.8834 20.9082 38.3397 22.302C38.2291 22.322 38.0883 22.3521 37.9275 22.3822C34.7403 23.0039 31.5229 23.0039 28.3256 22.3822C28.1949 22.3521 28.0743 22.332 27.9737 22.312C25.4401 20.9182 20.5939 19.4642 16.0494 19.0631C16.0494 19.0631 8.15677 18.2108 6.44754 18.8526C5.32147 19.2737 5.45217 21.5499 5.74374 22.3621C6.12581 23.405 7.5133 23.1443 7.76465 24.6383C8.25731 27.6666 9.11193 34.1944 12.2991 35.2774C14.0586 35.869 16.3912 36.1698 18.7942 36.1698C21.6496 36.1698 24.5854 35.7587 26.7572 34.9565C30.246 33.663 31.0906 30.003 31.0403 27.2655C31.0302 26.6839 31.4425 26.1826 32.0156 26.0723C32.3876 26.0021 32.7596 25.9319 33.1416 25.9319C33.5337 25.9319 33.9158 26.0021 34.2979 26.0723C34.871 26.1826 35.2832 26.6839 35.2731 27.2655C35.2229 30.003 36.0674 33.6529 39.5563 34.9465C41.7179 35.7486 44.6638 36.1598 47.5192 36.1598C49.9222 36.1598 52.2548 35.869 54.0143 35.2673C57.2015 34.1844 58.0561 27.6566 58.5488 24.6283C58.7901 23.1342 60.1776 23.3949 60.5697 22.3521C60.8412 21.5499 60.9618 19.2737 59.8458 18.8526ZM26.1841 34.0139C22.6148 35.2473 16.2203 35.5782 12.832 34.4351C10.8714 33.7733 9.80567 30.6648 9.80567 27.1051C9.80567 24.498 11.2535 22.4825 12.3896 21.9811C13.5258 21.4797 14.8328 21.4797 16.16 21.4797C20.3224 21.4797 25.2289 22.3722 27.5615 23.8061C28.6775 24.4879 29.4216 25.5508 29.4819 26.5636C29.5925 28.2281 29.8036 32.7705 26.1841 34.0139ZM53.4513 34.4351C50.063 35.5882 43.6685 35.2473 40.0992 34.0139C36.4797 32.7605 36.6908 28.2181 36.8014 26.5636C36.8718 25.5508 37.6057 24.4879 38.7218 23.8061C41.0543 22.3722 45.9608 21.4797 50.1233 21.4797C51.4605 21.4797 52.7676 21.4797 53.8937 21.9811C55.0298 22.4825 56.4776 24.498 56.4776 27.1051C56.4877 30.6648 55.4219 33.7733 53.4513 34.4351Z" fill="#3DB945"/>
<path d="M3.33867 79.6984H8.37931L10.1833 85.5615C10.3071 85.9152 10.4309 86.3308 10.5547 86.8084C10.6962 87.2682 10.8289 87.7546 10.9527 88.2675C11.0942 88.7627 11.218 89.2668 11.3241 89.7797C11.4479 90.2926 11.5452 90.7701 11.6159 91.2123H11.7486C11.8193 90.7348 11.9166 90.2219 12.0404 89.6736C12.1819 89.1076 12.3145 88.5682 12.4383 88.0553C12.5798 87.5247 12.7125 87.0383 12.8363 86.5961C12.9601 86.154 13.0574 85.8091 13.1281 85.5615L14.8791 79.6984H19.9197L21.1135 96.4121H17.3463L17.0545 90.7613C17.0191 90.2307 16.9926 89.6559 16.9749 89.0369C16.9572 88.4002 16.9395 87.7546 16.9219 87.1002C16.9219 86.4458 16.9219 85.8002 16.9219 85.1635C16.9219 84.5268 16.9219 83.9432 16.9219 83.4126H16.8423C16.7185 83.9962 16.577 84.5976 16.4178 85.2166C16.2763 85.8356 16.126 86.4546 15.9668 87.0737C15.8076 87.675 15.6484 88.2675 15.4893 88.8512C15.3301 89.4171 15.1709 89.9389 15.0117 90.4164L13.1546 96.4121H10.1303L8.1936 90.4429C8.03442 89.9477 7.87525 89.4171 7.71607 88.8512C7.55689 88.2675 7.39771 87.675 7.23853 87.0737C7.09704 86.4546 6.95555 85.8356 6.81406 85.2166C6.67257 84.5976 6.54876 83.9962 6.44264 83.4126H6.36306C6.38074 83.9785 6.38074 84.5976 6.36306 85.2697C6.36306 85.9241 6.35421 86.5873 6.33653 87.2594C6.31884 87.9138 6.29231 88.5505 6.25694 89.1695C6.23925 89.7709 6.22156 90.3014 6.20388 90.7613L5.91205 96.4121H2.1979L3.33867 79.6984ZM32.2778 79.3801C33.4804 79.3801 34.5947 79.5835 35.6205 79.9902C36.6463 80.3794 37.5306 80.9453 38.2735 81.6881C39.0163 82.431 39.5911 83.3418 39.9979 84.4207C40.4224 85.4996 40.6346 86.7199 40.6346 88.0818C40.6346 89.4083 40.4135 90.6021 39.9714 91.6633C39.5469 92.7245 38.9544 93.6353 38.1939 94.3959C37.451 95.1387 36.5579 95.7135 35.5144 96.1203C34.4886 96.5094 33.3743 96.7039 32.1716 96.7039C30.969 96.7039 29.8547 96.5094 28.8289 96.1203C27.8031 95.7312 26.9188 95.1741 26.1759 94.4489C25.4331 93.7061 24.8495 92.8041 24.425 91.7429C24.0182 90.664 23.8148 89.4437 23.8148 88.0818C23.8148 86.7553 24.027 85.5615 24.4515 84.5003C24.876 83.4214 25.4685 82.5017 26.229 81.7412C26.9895 80.9807 27.8827 80.397 28.9085 79.9902C29.952 79.5835 31.0751 79.3801 32.2778 79.3801ZM28.0595 88.0818C28.0595 89.0192 28.1657 89.8416 28.3779 90.5491C28.6078 91.2565 28.9173 91.8402 29.3064 92.3C29.6955 92.7599 30.1377 93.1047 30.6329 93.3347C31.1458 93.5646 31.6941 93.6796 32.2778 93.6796C32.8437 93.6796 33.3743 93.5646 33.8695 93.3347C34.3825 93.1047 34.8246 92.7599 35.196 92.3C35.5674 91.8402 35.8593 91.2565 36.0715 90.5491C36.2837 89.8416 36.3899 89.0192 36.3899 88.0818C36.3899 87.109 36.2749 86.2689 36.045 85.5615C35.8327 84.8363 35.5321 84.2438 35.143 83.784C34.7539 83.3241 34.3029 82.9793 33.79 82.7493C33.2947 82.5194 32.7553 82.4044 32.1716 82.4044C31.6057 82.4044 31.0662 82.5283 30.5533 82.7759C30.0581 83.0058 29.6248 83.3595 29.2534 83.837C28.882 84.3146 28.5901 84.9071 28.3779 85.6145C28.1657 86.322 28.0595 87.1444 28.0595 88.0818ZM45.7631 79.6984L47.9651 86.6757C48.2304 87.5247 48.5134 88.4797 48.814 89.5409C49.1147 90.5844 49.38 91.6368 49.6099 92.698H49.6895C49.9194 91.6368 50.1759 90.5844 50.4589 89.5409C50.7595 88.4974 51.0514 87.5335 51.3344 86.6492L53.5098 79.6984H57.6484L51.8915 96.4121H47.408L41.4918 79.6984H45.7631ZM60.8326 79.6984H64.4937L67.4385 88.7185C67.6861 89.479 67.8983 90.1688 68.0752 90.7878C68.2697 91.3892 68.4643 92.0701 68.6588 92.8306H68.7384C68.933 92.1939 69.1275 91.513 69.3221 90.7878C69.5343 90.0627 69.7377 89.3729 69.9323 88.7185L72.7709 79.6984H76.432L77.8116 96.4121H75.0525C74.911 94.6435 74.7695 92.866 74.628 91.0796C74.5042 89.2756 74.4069 87.4716 74.3362 85.6676L74.2301 82.6167H74.177C73.8763 83.7132 73.558 84.8275 73.2219 85.9594C72.9036 87.0914 72.5675 88.1791 72.2138 89.2226L69.8527 96.4121H67.4385L65.0508 89.196C64.8032 88.4355 64.5821 87.7458 64.3876 87.1267C64.2107 86.5077 64.0427 85.9417 63.8835 85.4288C63.742 84.8982 63.6094 84.403 63.4856 83.9432C63.3618 83.4833 63.2468 83.0412 63.1407 82.6167H63.0611C63.008 84.12 62.9284 85.6499 62.8223 87.2063C62.7162 88.7627 62.6189 90.2572 62.5305 91.6898L62.2121 96.4121H59.5061L60.8326 79.6984ZM88.7513 79.4331C89.9009 79.4331 90.9621 79.6188 91.9349 79.9902C92.9076 80.3617 93.7477 80.9099 94.4552 81.6351C95.1627 82.3602 95.7109 83.2622 96.1 84.3411C96.5068 85.42 96.7102 86.658 96.7102 88.0553C96.7102 89.4348 96.5068 90.664 96.1 91.7429C95.6933 92.8041 95.1273 93.7061 94.4021 94.4489C93.677 95.1741 92.8192 95.7312 91.8288 96.1203C90.856 96.4917 89.7948 96.6774 88.6452 96.6774C87.4956 96.6774 86.4344 96.4917 85.4616 96.1203C84.4889 95.7489 83.6488 95.2006 82.9413 94.4754C82.2339 93.7503 81.6768 92.8571 81.27 91.7959C80.8809 90.7171 80.6863 89.4702 80.6863 88.0553C80.6863 86.6757 80.8897 85.4554 81.2965 84.3942C81.7033 83.3153 82.2692 82.4133 82.9944 81.6881C83.7195 80.9453 84.5685 80.3882 85.5412 80.0168C86.5317 79.6277 87.6017 79.4331 88.7513 79.4331ZM83.7372 88.0553C83.7372 89.1341 83.8699 90.0804 84.1352 90.8939C84.4005 91.6898 84.7542 92.3531 85.1964 92.8837C85.6562 93.4143 86.1868 93.8122 86.7881 94.0775C87.4072 94.3251 88.0616 94.4489 88.7513 94.4489C89.4411 94.4489 90.0867 94.3251 90.688 94.0775C91.2893 93.8122 91.8022 93.4143 92.2267 92.8837C92.6689 92.3531 93.0138 91.6898 93.2614 90.8939C93.5267 90.0804 93.6593 89.1341 93.6593 88.0553C93.6593 86.941 93.5267 85.986 93.2614 85.1901C92.9961 84.3765 92.6335 83.7132 92.1737 83.2003C91.7315 82.6697 91.2009 82.2806 90.5819 82.033C89.9805 81.7854 89.335 81.6616 88.6452 81.6616C87.9554 81.6616 87.3099 81.7943 86.7085 82.0596C86.1072 82.3072 85.5855 82.6963 85.1433 83.2269C84.7188 83.7575 84.3739 84.4295 84.1086 85.2431C83.861 86.039 83.7372 86.9764 83.7372 88.0553ZM99.9039 79.6984H102.424L109.428 89.7001C109.746 90.16 110.047 90.6198 110.33 91.0796C110.613 91.5395 110.852 91.9551 111.046 92.3265H111.099C111.011 91.0177 110.967 89.7178 110.967 88.4267C110.967 87.1179 110.967 85.8002 110.967 84.4738V79.6984H113.699V96.4121H111.179L104.361 86.7288C104.025 86.2512 103.698 85.7383 103.379 85.1901C103.061 84.6241 102.787 84.12 102.557 83.6779H102.504C102.592 85.0574 102.636 86.4281 102.636 87.79C102.636 89.1341 102.636 90.4872 102.636 91.849V96.4121H99.9039V79.6984ZM117.729 96.4121V79.6984H120.567V87.0737L127.173 79.6984H130.702L124.016 87.0737L131.232 96.4121H127.677L121.973 88.9307L120.567 90.4429V96.4121H117.729ZM133.325 79.6984H143.672V81.98H136.164V86.5961H142.982V88.8512H136.164V94.1306H143.751V96.4121H133.325V79.6984ZM147.995 79.6984L151.975 86.8614L155.954 79.6984H159.005L153.275 89.4348V96.4121H150.436V89.4348L144.865 79.6984H147.995Z" fill="white"/>
</svg>
