<svg width="26" height="26" viewBox="0 0 26 26" fill="none" xmlns="http://www.w3.org/2000/svg">
<path d="M13.9805 25.4996C13.3271 25.4996 12.6852 25.4996 12.0318 25.4996C11.7682 25.4538 11.516 25.4079 11.2524 25.3736C4.62698 24.4913 -0.198792 18.27 0.580667 11.6018C1.44036 4.26906 8.40964 -0.760729 15.5967 0.774559C21.2593 1.98904 25.019 6.70948 25.4546 11.8768C25.9819 18.1439 22.0158 23.2081 16.9837 24.8236C16.0094 25.1444 14.9777 25.2819 13.9805 25.4996ZM13.0635 8.31351C11.3441 8.31351 9.62468 8.31351 7.90529 8.31351C7.06852 8.31351 6.75903 8.62286 6.75903 9.43634C6.75903 11.8768 6.75903 14.3286 6.75903 16.7691C6.75903 17.5825 7.09144 17.9148 7.90529 17.9148C11.3097 17.9148 14.7026 17.9148 18.107 17.9148C18.9209 17.9148 19.2533 17.5825 19.2533 16.7691C19.2533 14.3286 19.2533 11.8768 19.2533 9.43634C19.2533 8.61141 18.9438 8.31351 18.107 8.30206C16.422 8.31351 14.7485 8.31351 13.0635 8.31351Z" fill="white"/>
<path d="M7.57227 17.0792C7.57227 14.6846 7.57227 12.3473 7.57227 9.91835C7.72128 10.0329 7.83591 10.1131 7.92761 10.2162C8.92486 11.2703 9.91064 12.3359 10.9079 13.3899C12.1688 14.7305 13.8538 14.7305 15.1147 13.3899C16.1922 12.2442 17.2697 11.087 18.4274 9.84961C18.4274 12.3244 18.4274 14.6732 18.4274 17.0792C14.8281 17.0792 11.2288 17.0792 7.57227 17.0792Z" fill="white"/>
<path d="M17.9806 9.15039C16.7082 10.5138 15.5161 11.82 14.2667 13.0803C13.5789 13.7792 12.467 13.8021 11.7793 13.1146C10.5184 11.8543 9.31481 10.5253 8.01953 9.15039C11.3781 9.15039 14.622 9.15039 17.9806 9.15039Z" fill="white"/>
</svg>
