<svg width="104" height="70" viewBox="0 0 104 70" fill="none" xmlns="http://www.w3.org/2000/svg">
<path d="M22.7715 43.2132C22.8178 43.2132 22.8647 43.212 22.9117 43.2091C24.2135 43.1329 25.2069 42.0159 25.1308 40.714C24.524 30.3434 25.6992 24.8154 27.0184 22.0715V31.8371V37.4266V66.3494C27.0184 68.3651 28.6526 69.9981 30.6671 69.9981C32.6823 69.9981 34.3164 68.3651 34.3164 66.3494V39.7077H35.6843V66.3494C35.6843 68.3651 37.3185 69.9981 39.333 69.9981C41.3482 69.9981 42.9823 68.3651 42.9823 66.3494V37.4266V31.8371V22.0721C44.3016 24.8162 45.4768 30.3443 44.87 40.714C44.7938 42.0159 45.7873 43.1329 47.0891 43.2091C47.136 43.2117 47.1826 43.2132 47.2293 43.2132C48.4703 43.2132 49.5106 42.2449 49.5841 40.99C50.3137 28.5213 48.7539 20.3866 44.9488 16.8114C43.294 15.2564 41.6773 14.9881 40.8456 14.9683C40.7975 14.9654 40.75 14.9609 40.7013 14.9609H29.2995C29.2508 14.9609 29.2033 14.9651 29.1555 14.9683C28.3244 14.9881 26.7071 15.2558 25.0517 16.8111C21.2468 20.3863 19.6874 28.521 20.4166 40.99C20.4901 42.2449 21.5305 43.2132 22.7715 43.2132ZM36.256 22.096H41.0519V23.2765H36.256V22.096Z" fill="#366935"/>
<path d="M34.9998 13.2809C38.6672 13.2809 41.6403 10.3079 41.6403 6.64044C41.6403 2.97303 38.6672 0 34.9998 0C31.3324 0 28.3594 2.97303 28.3594 6.64044C28.3594 10.3079 31.3324 13.2809 34.9998 13.2809Z" fill="#366935"/>
<path d="M56.7715 43.2132C56.8178 43.2132 56.8647 43.212 56.9117 43.2091C58.2135 43.1329 59.2069 42.0159 59.1308 40.714C58.524 30.3434 59.6992 24.8154 61.0184 22.0715V31.8371V37.4266V66.3494C61.0184 68.3651 62.6526 69.9981 64.6671 69.9981C66.6823 69.9981 68.3164 68.3651 68.3164 66.3494V39.7077H69.6843V66.3494C69.6843 68.3651 71.3185 69.9981 73.333 69.9981C75.3482 69.9981 76.9823 68.3651 76.9823 66.3494V37.4266V31.8371V22.0721C78.3016 24.8162 79.4768 30.3443 78.87 40.714C78.7938 42.0159 79.7873 43.1329 81.0891 43.2091C81.136 43.2117 81.1826 43.2132 81.2293 43.2132C82.4703 43.2132 83.5106 42.2449 83.5841 40.99C84.3137 28.5213 82.7539 20.3866 78.9488 16.8114C77.294 15.2564 75.6773 14.9881 74.8456 14.9683C74.7975 14.9654 74.75 14.9609 74.7013 14.9609H63.2995C63.2508 14.9609 63.2033 14.9651 63.1555 14.9683C62.3244 14.9881 60.7071 15.2558 59.0517 16.8111C55.2468 20.3863 53.6874 28.521 54.4166 40.99C54.4901 42.2449 55.5305 43.2132 56.7715 43.2132ZM70.256 22.096H75.0519V23.2765H70.256V22.096Z" fill="#366935"/>
<path d="M68.9998 13.2809C72.6672 13.2809 75.6403 10.3079 75.6403 6.64044C75.6403 2.97303 72.6672 0 68.9998 0C65.3324 0 62.3594 2.97303 62.3594 6.64044C62.3594 10.3079 65.3324 13.2809 68.9998 13.2809Z" fill="#366935"/>
</svg>
