<svg width="228" height="228" viewBox="0 0 228 228" fill="none" xmlns="http://www.w3.org/2000/svg">
<g id="Stairs" clip-path="url(#clip0_2708_2473)">
<g id="Group">
<path id="Vector" d="M114 228C176.96 228 228 176.96 228 114C228 51.0395 176.96 0 114 0C51.0395 0 0 51.0395 0 114C0 176.96 51.0395 228 114 228Z" fill="white"/>
<g id="Group_2">
<path id="Vector_2" d="M165.904 50.2969H62.0965C59.2818 50.2969 57 52.5786 57 55.3933V172.612C57 175.427 59.2818 177.709 62.0965 177.709H165.904C168.718 177.709 171 175.427 171 172.612V55.3933C171 52.5786 168.718 50.2969 165.904 50.2969Z" fill="#366935"/>
<path id="Vector_3" d="M101.451 100.149C102.298 100.149 103.138 99.9831 103.921 99.6594C104.704 99.3356 105.416 98.8607 106.016 98.2619C106.616 97.663 107.092 96.9518 107.417 96.169C107.742 95.3862 107.909 94.547 107.91 93.6994C107.909 92.8518 107.742 92.0126 107.417 91.2298C107.092 90.4469 106.616 89.7358 106.016 89.1369C105.416 88.538 104.704 88.0631 103.921 87.7394C103.138 87.4156 102.298 87.2493 101.451 87.25C100.603 87.2493 99.7636 87.4156 98.9802 87.7394C98.1969 88.0631 97.485 88.538 96.8852 89.1369C96.2853 89.7358 95.8094 90.4469 95.4844 91.2298C95.1594 92.0126 94.9918 92.8518 94.9912 93.6994C94.9918 94.547 95.1594 95.3862 95.4844 96.169C95.8094 96.9518 96.2853 97.663 96.8852 98.2619C97.485 98.8607 98.1969 99.3356 98.9802 99.6594C99.7636 99.9831 100.603 100.149 101.451 100.149ZM114.167 120.183L111.032 118.597L109.726 114.645C107.747 108.654 102.232 104.462 95.9736 104.447C91.1286 104.434 88.4529 105.805 83.4202 107.834C80.5049 109.013 78.1244 111.222 76.731 114.042L75.8308 115.869C75.3244 116.888 75.2411 118.065 75.5991 119.145C75.9571 120.224 76.7273 121.119 77.7419 121.633C78.2431 121.884 78.789 122.033 79.3481 122.072C79.9073 122.112 80.4686 122.04 81 121.861C81.5313 121.683 82.022 121.401 82.444 121.032C82.866 120.663 83.2108 120.214 83.4587 119.712L84.3623 117.884C84.8244 116.946 85.614 116.21 86.582 115.815L90.1881 114.364L88.1428 122.52C87.7995 123.9 87.803 125.343 88.1528 126.721C88.5026 128.1 89.188 129.37 90.1478 130.419L98.2083 139.207C99.1736 140.263 99.8624 141.542 100.213 142.929L102.676 152.777C102.975 153.86 103.685 154.784 104.655 155.35C105.626 155.917 106.779 156.083 107.869 155.811C108.96 155.539 109.901 154.852 110.492 153.896C111.082 152.94 111.276 151.791 111.032 150.694L108.044 138.736C107.696 137.348 107.007 136.069 106.039 135.014L99.9166 128.337L102.23 119.106L102.971 121.324C103.679 123.481 105.214 125.268 107.238 126.295L110.373 127.881C110.874 128.132 111.42 128.281 111.979 128.321C112.538 128.36 113.099 128.288 113.631 128.109C114.162 127.931 114.653 127.649 115.075 127.28C115.497 126.911 115.842 126.462 116.09 125.96C117.127 123.849 116.279 121.245 114.167 120.183ZM83.3665 139.086C82.9387 140.172 82.2876 141.157 81.4553 141.975L74.7277 148.706C74.3281 149.105 74.0111 149.58 73.7947 150.101C73.5784 150.623 73.467 151.183 73.4668 151.748C73.4666 152.313 73.5778 152.872 73.7938 153.394C74.0099 153.916 74.3266 154.39 74.726 154.79C75.1253 155.19 75.5995 155.507 76.1214 155.723C76.6433 155.939 77.2026 156.051 77.7676 156.051C78.3325 156.051 78.892 155.94 79.414 155.724C79.936 155.508 80.4103 155.191 80.8099 154.792L88.8016 146.812C89.6252 145.986 90.275 145.004 90.7128 143.923L92.5301 139.382C85.0882 131.279 87.3213 133.765 86.1511 132.166L83.3665 139.086Z" fill="white"/>
<path id="Vector_4" d="M155.769 61.7656H72.2293C69.4146 61.7656 67.1328 64.0474 67.1328 66.8621V161.147C67.1328 163.962 69.4146 166.243 72.2293 166.243H155.769C158.584 166.243 160.866 163.962 160.866 161.147V66.8621C160.866 64.0474 158.584 61.7656 155.769 61.7656Z" stroke="white" stroke-width="2.54824" stroke-linejoin="round"/>
<path id="Vector_5" d="M69.668 156.052H121.6V143.31H134.267V130.569H146.933V117.828H160.868" stroke="white" stroke-width="2.54824" stroke-linecap="round" stroke-linejoin="round"/>
</g>
</g>
</g>
<defs>
<clipPath id="clip0_2708_2473">
<rect width="228" height="228" fill="white"/>
</clipPath>
</defs>
</svg>
