<svg width="16" height="16" viewBox="0 0 16 16" fill="none" xmlns="http://www.w3.org/2000/svg">
<g id="Frame">
<g id="XMLID 822">
<path id="XMLID 823" d="M15.3764 12.6652C14.7988 13.3518 13.7325 13.6318 11.6961 13.6318H4.30379C2.22075 13.6318 1.13636 13.3337 0.560981 12.6028C0 11.8901 0 10.84 0 9.38673V6.61671C0 3.80118 0.6656 2.37165 4.30379 2.37165H11.6961C13.4621 2.37165 14.4407 2.61878 15.0738 3.22466C15.723 3.84598 16 4.86043 16 6.61671V9.38673C16 10.9194 15.9566 11.9756 15.3764 12.6652ZM10.2721 7.61929L6.91525 5.86492C6.84021 5.82569 6.75814 5.80624 6.67618 5.80624C6.58338 5.80624 6.49079 5.83122 6.40877 5.88087C6.25435 5.97444 6.16005 6.14182 6.16005 6.32236V9.81986C6.16005 10.0001 6.25409 10.1673 6.40821 10.2609C6.56237 10.3546 6.75412 10.361 6.91406 10.2779L10.2709 8.5348C10.4417 8.44613 10.5489 8.26982 10.5492 8.07746C10.5494 7.88495 10.4426 7.70838 10.2721 7.61929Z" fill="#14F188"/>
</g>
</g>
</svg>
